<?xml version="1.0" encoding="utf-8"?>
<!-- Generator: Adobe Illustrator 16.0.4, SVG Export Plug-In . SVG Version: 6.00 Build 0)  -->
<!DOCTYPE svg PUBLIC "-//W3C//DTD SVG 1.1//EN" "http://www.w3.org/Graphics/SVG/1.1/DTD/svg11.dtd">
<svg version="1.1" id="Layer_1" xmlns="http://www.w3.org/2000/svg" xmlns:xlink="http://www.w3.org/1999/xlink" x="0px" y="0px"
	 width="61px" height="61px" viewBox="0 0 61 61" enable-background="new 0 0 61 61" xml:space="preserve">
<rect fill="#E2E2E6" width="61" height="61"/>
<path fill="#CFCFD1" d="M41.363,20.745H20.31c-0.582,0-1.053,0.473-1.053,1.053v17.896c0,0.58,0.471,1.051,1.053,1.051h21.053
	c0.58,0,1.053-0.471,1.053-1.051V21.797C42.416,21.217,41.943,20.745,41.363,20.745z M40.311,22.85v6.932l-3.686-3.684l-6.052,6.052
	l-4.507-4.505l-4.704,5.132V22.85H40.311z M21.362,35.891l4.771-5.203l2.952,2.953l-5,4.998h-2.722V35.891z M27.062,38.639
	l9.563-9.563l3.686,3.684v5.879H27.062z"/>
</svg>
